<svg width="84" height="64" viewBox="0 0 84 64" fill="none" xmlns="http://www.w3.org/2000/svg">
<path d="M74.009 16.255L79.8 21.9L83.3 2.2L64 6.5L69.502 11.863L64.611 16.7H57.3C56.747 16.7 56.3 17.148 56.3 17.7V24.778L49.1 31.822V1C49.1 0.448 48.653 0 48.1 0H37C36.448 0 36 0.448 36 1V24.432L28.7 17.368V9.4C28.7 8.848 28.252 8.4 27.7 8.4H16.6C16.048 8.4 15.6 8.848 15.6 9.4V33.015C15.499 33.013 15.401 33 15.3 33C6.9 33 0 39.8 0 48.3C0 56.7 6.8 63.6 15.3 63.6C21.703 63.6 27.224 59.644 29.492 54H76.2C76.753 54 77.2 53.553 77.2 53V42.8C77.2 42.247 76.753 41.8 76.2 41.8H69.4V20.81L74.009 16.255ZM58.3 18.7H67.4V41.7H58.3V18.7ZM38 2H47.1V41.7H38V2ZM36 33.132V41.8H29.117C28.982 41.517 28.852 41.232 28.701 40.959V26.068L36 33.132ZM17.6 10.4H26.7V38.16C24.377 35.554 21.19 33.746 17.6 33.194V10.4ZM17.1 54.7H16.2V57.2C16.2 57.8 15.8 58.2 15.2 58.2C14.6 58.2 14.2 57.8 14.2 57.2V54.7H11.6C11 54.7 10.6 54.3 10.6 53.7C10.6 53.1 11 52.7 11.6 52.7H17.1C18.1 52.7 18.9 51.9 18.9 51C18.9 50.1 18.1 49.3 17.1 49.3H13.4C11.3 49.3 9.6 47.6 9.6 45.6C9.6 43.6 11.3 41.9 13.4 41.9H14.3V39.5C14.3 38.9 14.7 38.5 15.3 38.5C15.9 38.5 16.3 38.9 16.3 39.5V41.9H18.9C19.5 41.9 19.9 42.3 19.9 42.9C19.9 43.4 19.5 43.9 18.9 43.9H13.4C12.4 43.9 11.6 44.7 11.6 45.6C11.6 46.5 12.4 47.3 13.4 47.3H17.1C19.2 47.3 20.9 49 20.9 51C20.9 53 19.2 54.7 17.1 54.7ZM75.2 52H30.132C30.426 50.814 30.6 49.58 30.6 48.3C30.6 46.736 30.359 45.225 29.916 43.8H75.2V52ZM49.1 41.8V40.614L56.3 33.577V41.8H49.1Z" fill="black"/>
</svg>
