<svg width="61" height="78" viewBox="0 0 61 78" fill="none" xmlns="http://www.w3.org/2000/svg">
<path fill-rule="evenodd" clip-rule="evenodd" d="M49.3 52.7H58C59.7 52.7 61 54 61 55.7V74.7C61 76.3 59.7 77.7 58 77.7H29.3C27.6 77.7 26.3 76.4 26.3 74.7V68.2H5C2.243 68.2 0 65.957 0 63.2V5C0 2.243 2.243 0 5 0H44.3C47.057 0 49.3 2.243 49.3 5V52.7ZM36.393 70.007C36.783 70.398 37.416 70.398 37.807 70.007C38.198 69.617 38.198 68.983 37.807 68.593L34.314 65.1L37.707 61.707C38.098 61.317 38.097 60.684 37.707 60.293C37.317 59.902 36.684 59.902 36.293 60.293L32.193 64.393C31.802 64.783 31.802 65.417 32.193 65.807L36.393 70.007ZM41.933 72.361L47.233 58.661C47.432 58.146 47.176 57.567 46.661 57.368C46.146 57.169 45.567 57.425 45.368 57.94L40.068 71.64C39.869 72.155 40.125 72.734 40.64 72.933C41.155 73.132 41.734 72.876 41.933 72.361ZM29.3 52.7H47.3V5C47.3 3.346 45.954 2 44.3 2H5C3.346 2 2 3.346 2 5V63.2C2 64.854 3.346 66.2 5 66.2H26.3V55.7C26.3 54 27.6 52.7 29.3 52.7ZM51.007 70.007L55.107 65.907C55.498 65.517 55.498 64.883 55.107 64.493L50.907 60.293C50.517 59.902 49.884 59.903 49.493 60.293C49.102 60.683 49.102 61.316 49.493 61.707L52.986 65.2L49.593 68.593C49.202 68.983 49.202 69.616 49.593 70.007C49.983 70.398 50.616 70.398 51.007 70.007ZM8.8 14.2H21.9C22.452 14.2 22.9 13.752 22.9 13.2C22.9 12.648 22.452 12.2 21.9 12.2H8.8C8.248 12.2 7.8 12.648 7.8 13.2C7.8 13.752 8.248 14.2 8.8 14.2ZM28 14.2H35.2C35.753 14.2 36.2 13.752 36.2 13.2C36.2 12.648 35.753 12.2 35.2 12.2H28C27.448 12.2 27 12.648 27 13.2C27 13.752 27.448 14.2 28 14.2ZM8.8 54H21.9C22.452 54 22.9 54.447 22.9 55C22.9 55.553 22.452 56 21.9 56H8.8C8.248 56 7.8 55.553 7.8 55C7.8 54.447 8.248 54 8.8 54ZM35.2 45.7H28C27.448 45.7 27 46.147 27 46.7C27 47.253 27.448 47.7 28 47.7H35.2C35.753 47.7 36.2 47.253 36.2 46.7C36.2 46.147 35.753 45.7 35.2 45.7ZM20.7 47.7H8.8C8.248 47.7 7.8 47.253 7.8 46.7C7.8 46.147 8.248 45.7 8.8 45.7H20.7C21.252 45.7 21.7 46.147 21.7 46.7C21.7 47.253 21.252 47.7 20.7 47.7ZM31.3 38.3C31.3 37.748 30.852 37.3 30.3 37.3H25.5C24.948 37.3 24.5 37.748 24.5 38.3C24.5 38.852 24.948 39.3 25.5 39.3H30.3C30.852 39.3 31.3 38.852 31.3 38.3ZM17.1 22.6H8.8C8.248 22.6 7.8 22.152 7.8 21.6C7.8 21.048 8.248 20.6 8.8 20.6H17.1C17.652 20.6 18.1 21.048 18.1 21.6C18.1 22.152 17.652 22.6 17.1 22.6ZM22.3 21.6C22.3 22.152 22.748 22.6 23.3 22.6H30.4C30.952 22.6 31.4 22.152 31.4 21.6C31.4 21.048 30.952 20.6 30.4 20.6H23.3C22.748 20.6 22.3 21.048 22.3 21.6ZM35.7 20.6H40.5C41.053 20.6 41.5 21.048 41.5 21.6C41.5 22.152 41.053 22.6 40.5 22.6H35.7C35.147 22.6 34.7 22.152 34.7 21.6C34.7 21.048 35.147 20.6 35.7 20.6ZM8.8 30.9H17.1C17.652 30.9 18.1 30.452 18.1 29.9C18.1 29.348 17.652 28.9 17.1 28.9H8.8C8.248 28.9 7.8 29.348 7.8 29.9C7.8 30.452 8.248 30.9 8.8 30.9ZM32.8 28.9C33.353 28.9 33.8 29.348 33.8 29.9C33.8 30.452 33.353 30.9 32.8 30.9H23.3C22.748 30.9 22.3 30.452 22.3 29.9C22.3 29.348 22.748 28.9 23.3 28.9H32.8ZM8.8 39.3H20.7C21.252 39.3 21.7 38.852 21.7 38.3C21.7 37.748 21.252 37.3 20.7 37.3H8.8C8.248 37.3 7.8 37.748 7.8 38.3C7.8 38.852 8.248 39.3 8.8 39.3Z" fill="black"/>
</svg>
