<svg width="73" height="77" viewBox="0 0 73 77" fill="none" xmlns="http://www.w3.org/2000/svg">
<path fill-rule="evenodd" clip-rule="evenodd" d="M67 47H5C2.243 47 0 44.757 0 42V26C0 23.243 2.243 21 5 21H24.698C22.855 15.661 22.6 10.8 22.6 10.8L36.1 0L49.6 10.8C49.6 10.8 49.346 15.661 47.502 21H67C69.757 21 72 23.243 72 26V42C72 44.757 69.757 47 67 47ZM31.783 17.37C31.38 16.993 30.748 17.013 30.37 17.416C29.993 17.819 30.013 18.452 30.416 18.829L33.616 21.829C34.004 22.193 34.608 22.189 34.992 21.821L42.392 14.721C42.79 14.338 42.803 13.705 42.421 13.307C42.038 12.909 41.405 12.896 41.007 13.278L34.291 19.721L31.783 17.37ZM5 23C3.346 23 2 24.346 2 26V42C2 43.654 3.346 45 5 45H67C68.654 45 70 43.654 70 42V26C70 24.346 68.654 23 67 23H47.1C46.982 23 46.873 22.97 46.769 22.933C44.821 27.611 41.557 32.254 36.1 34C30.631 32.25 27.363 27.59 25.418 22.902C25.29 22.962 25.15 23 25 23H5ZM62.1 32H52.1C51.547 32 51.1 31.552 51.1 31C51.1 30.448 51.547 30 52.1 30H62.1C62.653 30 63.1 30.448 63.1 31C63.1 31.552 62.653 32 62.1 32ZM52.1 38H62.1C62.653 38 63.1 37.552 63.1 37C63.1 36.448 62.653 36 62.1 36H52.1C51.547 36 51.1 36.448 51.1 37C51.1 37.552 51.547 38 52.1 38ZM17.1 34C17.1 36.7614 14.8614 39 12.1 39C9.33855 39 7.09998 36.7614 7.09998 34C7.09998 31.2386 9.33855 29 12.1 29C14.8614 29 17.1 31.2386 17.1 34ZM67.1 51H5.09998C2.34298 51 0.0999756 53.243 0.0999756 56V72C0.0999756 74.757 2.34298 77 5.09998 77H67.1C69.857 77 72.1 74.757 72.1 72V56C72.1 53.243 69.856 51 67.1 51ZM70.1 72C70.1 73.654 68.754 75 67.1 75H5.09998C3.44598 75 2.09998 73.654 2.09998 72V56C2.09998 54.346 3.44598 53 5.09998 53H67.1C68.754 53 70.1 54.346 70.1 56V72ZM36.1 60H46.1C46.652 60 47.1 60.447 47.1 61C47.1 61.553 46.653 62 46.1 62H36.1C35.548 62 35.1 61.553 35.1 61C35.1 60.447 35.548 60 36.1 60ZM62.1 60H52.1C51.547 60 51.1 60.447 51.1 61C51.1 61.553 51.547 62 52.1 62H62.1C62.653 62 63.1 61.553 63.1 61C63.1 60.447 62.652 60 62.1 60ZM36.1 66H46.1C46.652 66 47.1 66.447 47.1 67C47.1 67.553 46.653 68 46.1 68H36.1C35.548 68 35.1 67.553 35.1 67C35.1 66.447 35.548 66 36.1 66ZM62.1 66H52.1C51.547 66 51.1 66.447 51.1 67C51.1 67.553 51.547 68 52.1 68H62.1C62.653 68 63.1 67.553 63.1 67C63.1 66.447 62.652 66 62.1 66ZM17.1 64C17.1 66.7614 14.8614 69 12.1 69C9.33855 69 7.09998 66.7614 7.09998 64C7.09998 61.2386 9.33855 59 12.1 59C14.8614 59 17.1 61.2386 17.1 64Z" fill="black"/>
</svg>
