<svg width="89" height="72" viewBox="0 0 89 72" fill="none" xmlns="http://www.w3.org/2000/svg">
<path fill-rule="evenodd" clip-rule="evenodd" d="M88.6 26C88.6 29.3 85.9 32 82.6 32H80.501V54.9H85.901C86.454 54.9 86.901 55.347 86.901 55.9V59.4C86.901 62.047 84.747 64.2 82.1 64.2H20.084L21.761 70.024C21.848 70.326 21.788 70.651 21.599 70.902C21.41 71.153 21.114 71.3 20.8 71.3H4.2C3.886 71.3 3.59 71.152 3.401 70.901C3.212 70.65 3.152 70.325 3.239 70.023L4.96 64.046C1.953 61.761 0 58.159 0 54.1C0 48.028 4.353 42.959 10.1 41.836V15.6C10.1 12.126 12.926 9.3 16.4 9.3H56.6V6C56.6 2.7 59.3 0 62.6 0H82.6C85.9 0 88.6 2.7 88.6 6V26ZM72.6 8.6C70.9 8.6 69.5 9.8 69.3 11.4V11.9C69.3 13.7 70.8 15.2 72.6 15.2C74.3 15.2 75.7 13.9 75.9 12.3V11.9C75.9 10.9 75.5 10 74.8 9.4C74.3 9 73.7 8.7 73 8.6H72.6ZM68.9 16.5C67.6 16.5 66.5 17.4 66.3 18.7L65.6 23.4H79.6L78.9 18.7C78.7 17.5 77.6 16.5 76.3 16.5H72.6H68.9ZM12.5 43.6C6.71 43.6 2 48.31 2 54.1C2 59.89 6.71 64.6 12.5 64.6C18.29 64.6 23 59.89 23 54.1C23 48.31 18.29 43.6 12.5 43.6ZM6.717 65.171L5.529 69.3H19.471L18.283 65.171C16.552 66.079 14.587 66.6 12.5 66.6C10.413 66.6 8.448 66.079 6.717 65.171ZM82.099 62.2C83.643 62.2 84.9 60.944 84.9 59.4V56.901H53.482C53.04 58.692 51.378 59.8 49 59.8H41.7C39.322 59.8 37.66 58.691 37.217 56.9H24.672C24.214 58.889 23.285 60.697 22.002 62.2H82.099ZM52.6 54.9H78.5V32H62.6C59.3 32 56.6 29.3 56.6 26V11.3H16.4C14.069 11.3 12.1 13.269 12.1 15.6V41.62C12.1574 41.6183 12.2143 41.6144 12.2712 41.6104C12.347 41.6052 12.4229 41.6 12.5 41.6C19.393 41.6 25 47.207 25 54.1C25 54.3089 24.9856 54.5142 24.9713 54.7197C24.967 54.7798 24.9628 54.8398 24.959 54.9H38.1C38.652 54.9 39.1 55.347 39.1 55.9C39.1 57.552 40.729 57.799 41.7 57.799H49C49.971 57.799 51.6 57.552 51.6 55.9C51.6 55.347 52.047 54.9 52.6 54.9ZM40.3 39.6C40.3 39.047 40.748 38.6 41.3 38.6C41.852 38.6 42.3 39.047 42.3 39.6V46.6C42.3 47.153 41.852 47.6 41.3 47.6C40.748 47.6 40.3 47.153 40.3 46.6V39.6ZM37.3 40.6C36.748 40.6 36.3 41.047 36.3 41.6V44.6C36.3 45.153 36.748 45.6 37.3 45.6C37.852 45.6 38.3 45.153 38.3 44.6V41.6C38.3 41.047 37.852 40.6 37.3 40.6ZM12.5 59.1C15.2614 59.1 17.5 56.8614 17.5 54.1C17.5 51.3386 15.2614 49.1 12.5 49.1C9.73858 49.1 7.5 51.3386 7.5 54.1C7.5 56.8614 9.73858 59.1 12.5 59.1ZM44.3 41.6C44.3 41.047 44.748 40.6 45.3 40.6C45.852 40.6 46.3 41.047 46.3 41.6V44.6C46.3 45.153 45.852 45.6 45.3 45.6C44.748 45.6 44.3 45.153 44.3 44.6V41.6ZM53.4 40.6C52.847 40.6 52.4 41.047 52.4 41.6V44.6C52.4 45.153 52.847 45.6 53.4 45.6C53.953 45.6 54.4 45.153 54.4 44.6V41.6C54.4 41.047 53.953 40.6 53.4 40.6ZM49.3 38.6C48.747 38.6 48.3 39.047 48.3 39.6V46.6C48.3 47.153 48.747 47.6 49.3 47.6C49.853 47.6 50.3 47.153 50.3 46.6V39.6C50.3 39.047 49.853 38.6 49.3 38.6Z" fill="black"/>
</svg>
