<svg width="104" height="104" viewBox="0 0 104 104" fill="none" xmlns="http://www.w3.org/2000/svg">
<path d="M54.4 43.299L61.763 37.777L73.216 46.012C73.256 46.04 73.301 46.054 73.343 46.076C73.379 46.095 73.411 46.115 73.449 46.129C73.562 46.172 73.68 46.2 73.8 46.2C73.919 46.2 74.036 46.172 74.15 46.129C74.188 46.115 74.221 46.094 74.257 46.076C74.298 46.055 74.343 46.042 74.381 46.014L86.581 37.314C86.844 37.126 87 36.823 87 36.5V23.7C87 23.578 86.971 23.462 86.93 23.35C86.922 23.329 86.916 23.308 86.907 23.288C86.861 23.187 86.8 23.095 86.723 23.014C86.707 22.998 86.69 22.984 86.674 22.969C86.644 22.941 86.617 22.91 86.583 22.886L74.383 14.186C74.033 13.937 73.566 13.938 73.218 14.188L61.118 22.888C61.085 22.912 61.059 22.942 61.029 22.97C61.012 22.986 60.995 22.999 60.979 23.016C60.902 23.097 60.841 23.189 60.795 23.289C60.786 23.309 60.78 23.33 60.772 23.351C60.73 23.462 60.701 23.579 60.701 23.701V36.076L53.388 41.56L36.283 29.288C35.934 29.038 35.466 29.038 35.117 29.288L17.417 41.988C17.384 42.012 17.357 42.043 17.327 42.07C17.31 42.085 17.293 42.099 17.278 42.115C17.201 42.196 17.139 42.288 17.093 42.389C17.084 42.409 17.078 42.429 17.07 42.45C17.029 42.561 17 42.678 17 42.8V61.4C17 61.722 17.155 62.025 17.417 62.212L35.117 74.911C35.156 74.939 35.201 74.952 35.243 74.974C35.279 74.993 35.312 75.013 35.35 75.028C35.463 75.071 35.581 75.099 35.7 75.099C35.819 75.099 35.937 75.071 36.05 75.028C36.088 75.014 36.121 74.993 36.157 74.974C36.199 74.952 36.244 74.939 36.283 74.911L53.403 62.628L60.7 67.815V80C60.7 80.322 60.855 80.624 61.116 80.812L73.216 89.512C73.255 89.54 73.299 89.553 73.341 89.575C73.377 89.594 73.411 89.615 73.45 89.63C73.563 89.673 73.681 89.701 73.8 89.701C73.919 89.701 74.037 89.673 74.151 89.63C74.188 89.616 74.22 89.596 74.256 89.578C74.298 89.556 74.343 89.543 74.382 89.515L86.582 80.815C86.844 80.627 87 80.323 87 80V67.1V67.099C87 67.098 87 67.098 87 67.097C87 66.976 86.971 66.861 86.93 66.751C86.922 66.729 86.916 66.708 86.906 66.687C86.86 66.586 86.799 66.495 86.722 66.414C86.707 66.398 86.69 66.385 86.674 66.37C86.643 66.342 86.616 66.31 86.582 66.286L74.38 57.586C74.032 57.337 73.564 57.338 73.216 57.589L61.557 65.971L54.4 60.884V43.299ZM72.8 43.25L62.7 35.988V25.651L72.8 32.913V43.25ZM73.802 16.23L84.278 23.7L73.802 31.17L63.413 23.7L73.802 16.23ZM35.7 31.331L51.685 42.8L35.7 54.27L19.715 42.8L35.7 31.331ZM36.7 72.152V56.013L52.4 44.748V60.887L36.7 72.152ZM74.8 86.759V76.412L85 69.053V79.485L74.8 86.759ZM73.802 59.63L84.284 67.105L73.802 74.667L63.406 67.105L73.802 59.63Z" fill="black"/>
</svg>
