<svg width="104" height="104" viewBox="0 0 104 104" fill="none" xmlns="http://www.w3.org/2000/svg">
<path fill-rule="evenodd" clip-rule="evenodd" d="M70.8 65.85H79.5C81.2 65.85 82.5 67.15 82.5 68.85V87.85C82.5 89.45 81.2 90.85 79.5 90.85H50.8C49.1 90.85 47.8 89.55 47.8 87.85V81.35H26.5C23.743 81.35 21.5 79.107 21.5 76.35V18.15C21.5 15.393 23.743 13.15 26.5 13.15H65.8C68.557 13.15 70.8 15.393 70.8 18.15V65.85ZM57.893 83.157C58.283 83.548 58.916 83.548 59.307 83.157C59.698 82.767 59.698 82.133 59.307 81.743L55.814 78.25L59.207 74.857C59.598 74.467 59.597 73.834 59.207 73.443C58.817 73.052 58.184 73.052 57.793 73.443L53.693 77.543C53.302 77.933 53.302 78.567 53.693 78.957L57.893 83.157ZM63.433 85.511L68.733 71.811C68.932 71.296 68.676 70.717 68.161 70.518C67.646 70.319 67.067 70.575 66.868 71.09L61.568 84.79C61.369 85.305 61.625 85.884 62.14 86.083C62.655 86.282 63.234 86.026 63.433 85.511ZM50.8 65.85H68.8V18.15C68.8 16.496 67.454 15.15 65.8 15.15H26.5C24.846 15.15 23.5 16.496 23.5 18.15V76.35C23.5 78.004 24.846 79.35 26.5 79.35H47.8V68.85C47.8 67.15 49.1 65.85 50.8 65.85ZM72.507 83.157L76.607 79.057C76.998 78.667 76.998 78.033 76.607 77.643L72.407 73.443C72.017 73.052 71.384 73.053 70.993 73.443C70.602 73.833 70.602 74.466 70.993 74.857L74.486 78.35L71.093 81.743C70.702 82.133 70.702 82.766 71.093 83.157C71.483 83.548 72.116 83.548 72.507 83.157ZM30.3 27.35H43.4C43.952 27.35 44.4 26.902 44.4 26.35C44.4 25.798 43.952 25.35 43.4 25.35H30.3C29.748 25.35 29.3 25.798 29.3 26.35C29.3 26.902 29.748 27.35 30.3 27.35ZM49.5 27.35H56.7C57.253 27.35 57.7 26.902 57.7 26.35C57.7 25.798 57.253 25.35 56.7 25.35H49.5C48.948 25.35 48.5 25.798 48.5 26.35C48.5 26.902 48.948 27.35 49.5 27.35ZM30.3 67.15H43.4C43.952 67.15 44.4 67.597 44.4 68.15C44.4 68.703 43.952 69.15 43.4 69.15H30.3C29.748 69.15 29.3 68.703 29.3 68.15C29.3 67.597 29.748 67.15 30.3 67.15ZM56.7 58.85H49.5C48.948 58.85 48.5 59.297 48.5 59.85C48.5 60.403 48.948 60.85 49.5 60.85H56.7C57.253 60.85 57.7 60.403 57.7 59.85C57.7 59.297 57.253 58.85 56.7 58.85ZM42.2 60.85H30.3C29.748 60.85 29.3 60.403 29.3 59.85C29.3 59.297 29.748 58.85 30.3 58.85H42.2C42.752 58.85 43.2 59.297 43.2 59.85C43.2 60.403 42.752 60.85 42.2 60.85ZM52.8 51.45C52.8 50.898 52.352 50.45 51.8 50.45H47C46.448 50.45 46 50.898 46 51.45C46 52.002 46.448 52.45 47 52.45H51.8C52.352 52.45 52.8 52.002 52.8 51.45ZM38.6 35.75H30.3C29.748 35.75 29.3 35.302 29.3 34.75C29.3 34.198 29.748 33.75 30.3 33.75H38.6C39.152 33.75 39.6 34.198 39.6 34.75C39.6 35.302 39.152 35.75 38.6 35.75ZM43.8 34.75C43.8 35.302 44.248 35.75 44.8 35.75H51.9C52.452 35.75 52.9 35.302 52.9 34.75C52.9 34.198 52.452 33.75 51.9 33.75H44.8C44.248 33.75 43.8 34.198 43.8 34.75ZM57.2 33.75H62C62.553 33.75 63 34.198 63 34.75C63 35.302 62.553 35.75 62 35.75H57.2C56.647 35.75 56.2 35.302 56.2 34.75C56.2 34.198 56.647 33.75 57.2 33.75ZM30.3 44.05H38.6C39.152 44.05 39.6 43.602 39.6 43.05C39.6 42.498 39.152 42.05 38.6 42.05H30.3C29.748 42.05 29.3 42.498 29.3 43.05C29.3 43.602 29.748 44.05 30.3 44.05ZM54.3 42.05C54.853 42.05 55.3 42.498 55.3 43.05C55.3 43.602 54.853 44.05 54.3 44.05H44.8C44.248 44.05 43.8 43.602 43.8 43.05C43.8 42.498 44.248 42.05 44.8 42.05H54.3ZM30.3 52.45H42.2C42.752 52.45 43.2 52.002 43.2 51.45C43.2 50.898 42.752 50.45 42.2 50.45H30.3C29.748 50.45 29.3 50.898 29.3 51.45C29.3 52.002 29.748 52.45 30.3 52.45Z" fill="black"/>
</svg>
