<svg width="104" height="104" viewBox="0 0 104 104" fill="none" xmlns="http://www.w3.org/2000/svg">
<path fill-rule="evenodd" clip-rule="evenodd" d="M50.261 14.598C50.24 14.6 50.22 14.6 50.199 14.6C49.675 14.6 49.234 14.191 49.202 13.66L48.802 7.06C48.769 6.508 49.189 6.034 49.74 6.001C50.295 5.973 50.766 6.387 50.799 6.939L51.199 13.539C51.232 14.091 50.812 14.565 50.261 14.598ZM55.258 21.639C55.371 21.681 55.487 21.7 55.601 21.7C56.009 21.7 56.393 21.448 56.54 21.042L60.84 9.242C61.029 8.723 60.762 8.149 60.243 7.96C59.722 7.771 59.149 8.039 58.961 8.557L54.661 20.357C54.472 20.876 54.739 21.45 55.258 21.639ZM45.101 19.9C44.762 19.9 44.431 19.727 44.243 19.415L40.043 12.414C39.759 11.94 39.912 11.326 40.386 11.042C40.86 10.759 41.474 10.911 41.758 11.385L45.958 18.385C46.242 18.859 46.089 19.473 45.615 19.757C45.454 19.854 45.276 19.9 45.101 19.9ZM75.353 66.979L88.453 88.479C88.741 88.951 88.592 89.566 88.12 89.853C87.648 90.142 87.032 89.992 86.746 89.52L74.171 68.881L58.166 78.827L66.156 92.082C66.441 92.556 66.289 93.17 65.816 93.455C65.654 93.553 65.476 93.599 65.3 93.599C64.962 93.599 64.631 93.428 64.443 93.116L55.943 79.016C55.661 78.547 55.807 77.939 56.271 77.65L58.6 76.203L52.286 64.585C51.869 65.606 51.488 66.442 51.167 66.999L45.255 77.237L46.878 78.384C47.099 78.54 47.247 78.779 47.289 79.048C47.33 79.316 47.261 79.589 47.097 79.806L33.497 97.705C33.301 97.963 33.002 98.1 32.7 98.1C32.505 98.1 32.31 98.043 32.134 97.928L16.534 87.328C16.083 87.021 15.961 86.41 16.259 85.953L28.759 66.853C28.908 66.626 29.142 66.469 29.409 66.418C29.675 66.369 29.951 66.428 30.173 66.584L31.705 67.667C32.684 62.85 33.024 58.516 32.7 54.788C32.435 50.73 30.945 47.091 28.007 43.315C27.928 43.22 27.756 43.028 27.546 42.794C25.954 41.016 25.156 40.024 25.017 39.304C24.847 38.561 25.023 37.505 25.818 36.898C26.409 36.449 27.489 36.122 29.286 37.128C30.081 37.59 30.819 38.1 31.501 38.624L28.548 33.134C27.69 31.92 27.962 30.328 29.197 29.401C30.439 28.468 32.219 28.664 33.25 29.843C33.279 29.876 33.307 29.911 33.331 29.948L35.465 33.165L33.48 27.209C33.093 26.499 33.012 25.645 33.261 24.848C33.52 24.018 34.112 23.341 34.885 22.99C35.686 22.587 36.675 22.529 37.568 22.844C38.396 23.137 39.067 23.736 39.408 24.486L42.384 32.637L42.1 28.773C41.832 27.191 42.978 25.632 44.719 25.316C46.498 25.153 48.047 26.39 48.194 28.009L49.753 48.099L51.441 45.286C52.08 44.28 53.984 41.286 56.913 43.043L57.413 43.343C58.357 43.91 58.783 45.009 58.446 46.017C57.755 48.407 55.288 56.543 53.221 62.157C53.2282 62.1677 53.2371 62.1768 53.2461 62.186L53.2461 62.186C53.2572 62.1973 53.2683 62.2086 53.276 62.223L60.3 75.146L70.04 69.093L65.868 58.569C64.788 55.928 65.545 52.897 67.754 51.036L75.959 44.231C76.313 43.926 76.301 43.482 76.167 43.171C76.1 43.019 75.835 42.519 75.202 42.595C73.7971 42.7603 71.3435 43.9932 70.5207 44.4066L70.51 44.412L66.745 46.295C66.33 46.504 65.825 46.397 65.529 46.04C65.232 45.683 65.22 45.169 65.5 44.798L75.101 32.098C75.417 31.726 75.417 31.177 75.139 30.852C74.902 30.556 74.627 30.499 74.434 30.499C74.113 30.499 73.793 30.658 73.58 30.925L66.08 40.324C65.737 40.756 65.108 40.828 64.675 40.482C64.364 40.233 64.249 39.838 64.333 39.474C64.3 39.292 64.299 39.104 64.374 38.921L70.174 24.721C70.283 24.478 70.287 24.282 70.2 24.102C70.08 23.854 69.803 23.655 69.458 23.569C69.032 23.472 68.389 23.755 68.194 24.146L62.015 38.201C61.794 38.706 61.206 38.937 60.698 38.714C60.292 38.536 60.077 38.121 60.118 37.703C60.118 37.6834 60.1154 37.6643 60.1128 37.6453V37.6453C60.1091 37.6186 60.1055 37.592 60.109 37.564L61.709 25.764C61.718 25.702 61.731 25.641 61.751 25.582C61.817 25.383 61.743 25.208 61.693 25.122C61.591 24.945 61.412 24.82 61.204 24.778C60.751 24.678 60.292 24.923 60.153 25.209L57.072 37.933C57.046 38.038 57.002 38.133 56.948 38.22C56.9463 38.2233 56.9452 38.2268 56.9441 38.2303C56.9425 38.2352 56.9409 38.2399 56.938 38.244C56.872 38.345 56.787 38.43 56.691 38.5C56.6845 38.5047 56.6777 38.5091 56.6707 38.5131C56.6579 38.5205 56.6444 38.5271 56.6308 38.5336L56.6307 38.5337C56.6173 38.5401 56.6038 38.5466 56.591 38.554C56.517 38.596 56.442 38.632 56.36 38.654L56.3543 38.6559L56.348 38.6586L56.3408 38.6622L56.3366 38.6644C56.3279 38.6691 56.3192 38.6739 56.309 38.676C56.2935 38.6792 56.2782 38.6781 56.263 38.677C56.2497 38.6761 56.2365 38.6751 56.223 38.677C56.2076 38.6793 56.1924 38.6828 56.1773 38.6863C56.1522 38.6922 56.1272 38.698 56.101 38.698C56.0648 38.698 56.0281 38.692 55.9917 38.6861L55.9916 38.686L55.9914 38.686C55.9785 38.6839 55.9657 38.6818 55.953 38.68C55.933 38.677 55.914 38.677 55.894 38.673L55.8883 38.6721C55.8853 38.6718 55.8825 38.6717 55.8796 38.6715H55.8795C55.8748 38.6712 55.87 38.671 55.865 38.67C55.8366 38.6633 55.8122 38.6498 55.7877 38.6361C55.7716 38.6271 55.7554 38.6181 55.738 38.611L55.7059 38.5985C55.6458 38.5753 55.5866 38.5525 55.534 38.516C55.4954 38.4893 55.464 38.4554 55.4324 38.4214L55.4324 38.4213C55.4214 38.4095 55.4103 38.3976 55.399 38.386L55.3813 38.3685L55.3694 38.3571C55.3328 38.3216 55.2964 38.2863 55.268 38.243C55.2355 38.1925 55.2155 38.1368 55.1952 38.08C55.1905 38.0671 55.1858 38.054 55.181 38.041C55.1741 38.0224 55.1649 38.0051 55.1558 37.9878C55.1423 37.9624 55.129 37.9372 55.123 37.908L53.522 30.408C53.508 30.34 53.5 30.27 53.5 30.2C53.5 30.039 53.332 29.8 53.101 29.8C52.891 29.8 52.704 29.938 52.604 30.1L52.802 40.882C52.812 41.434 52.372 41.89 51.82 41.9H51.801C51.257 41.9 50.811 41.464 50.801 40.918L50.601 29.918C50.599 29.805 50.616 29.692 50.652 29.584C51.002 28.533 52.009 27.8 53.101 27.8C54.361 27.8 55.432 28.832 55.497 30.08L56.162 33.198L58.228 24.665C58.237 24.626 58.249 24.587 58.263 24.549C58.734 23.293 60.24 22.515 61.617 22.824C62.367 22.974 63.033 23.448 63.423 24.12C63.779 24.731 63.87 25.453 63.68 26.115L63.027 30.936L66.385 23.298C67.014 22.038 68.551 21.32 69.917 21.624C70.871 21.861 71.621 22.446 72.001 23.233C72.349 23.952 72.352 24.762 72.01 25.513L68.518 34.063L72.018 29.676C72.617 28.927 73.497 28.498 74.434 28.498H74.435C75.314 28.498 76.132 28.89 76.68 29.575C77.571 30.614 77.572 32.284 76.659 33.35L69.672 42.595C71.337 41.759 73.429 40.79 74.982 40.607C76.296 40.472 77.482 41.164 78.005 42.38C78.527 43.592 78.23 44.918 77.249 45.759L69.038 52.57C67.5 53.864 66.971 55.976 67.725 57.822L71.768 68.019L73.971 66.65C74.198 66.51 74.472 66.464 74.731 66.527C74.991 66.588 75.214 66.751 75.353 66.979ZM43.614 76.078L49.434 66C51.199 62.936 55.26 49.844 56.54 45.424C56.603 45.236 56.466 45.106 56.387 45.059L55.887 44.759L55.8861 44.7584C55.3253 44.4226 54.6302 44.0063 53.145 46.339L49.859 51.817C49.635 52.19 49.197 52.375 48.772 52.275C48.348 52.175 48.038 51.813 48.004 51.379L46.204 28.179C46.175 27.864 45.95 27.647 45.819 27.546C45.579 27.362 45.276 27.271 44.992 27.298C44.52 27.388 43.981 27.895 44.088 28.537L44.899 39.528C44.9007 39.5515 44.8962 39.5731 44.8916 39.5947C44.8882 39.6108 44.8849 39.6269 44.884 39.644C44.909 40.073 44.669 40.486 44.244 40.641C43.725 40.83 43.151 40.563 42.962 40.044L37.562 25.244C37.474 25.057 37.223 24.844 36.904 24.731C36.522 24.596 36.102 24.619 35.749 24.795C35.366 24.969 35.226 25.275 35.174 25.443C35.082 25.736 35.113 26.044 35.258 26.286C35.295 26.349 35.326 26.415 35.349 26.484L39.706 39.555L39.834 39.748C40.139 40.208 40.013 40.829 39.553 41.134C39.386 41.244 39.2 41.28 39.014 41.282C38.9991 41.284 38.9843 41.2873 38.9694 41.2906C38.9463 41.2958 38.9231 41.301 38.9 41.301C38.481 41.301 38.091 41.036 37.951 40.617L37.892 40.439L31.71 31.118C31.364 30.765 30.79 30.709 30.4 31C30.106 31.22 29.899 31.598 30.2 32C30.23 32.041 30.257 32.083 30.278 32.126L36.678 44.026C36.6932 44.0539 36.6999 44.0834 36.7066 44.1129C36.711 44.132 36.7153 44.1512 36.722 44.17L36.7275 44.1855L36.7364 44.2099C36.7543 44.2588 36.7719 44.3068 36.779 44.358C36.7865 44.4119 36.7836 44.4638 36.7807 44.5165L36.779 44.549L36.778 44.5721C36.7755 44.6272 36.7732 44.6816 36.76 44.736C36.7468 44.7881 36.7247 44.8354 36.7021 44.8835L36.7021 44.8836L36.688 44.914L36.6735 44.9451C36.6521 44.9913 36.6312 45.0365 36.601 45.079C36.5687 45.1245 36.5275 45.1618 36.4853 45.2L36.4853 45.2L36.4853 45.2001L36.4853 45.2001L36.4852 45.2001L36.4852 45.2001L36.4852 45.2001L36.459 45.224C36.4447 45.2371 36.4323 45.2516 36.42 45.2661L36.4199 45.2661C36.4011 45.2881 36.3823 45.3101 36.357 45.327C36.3496 45.3323 36.3413 45.3348 36.3329 45.3373C36.3255 45.3395 36.318 45.3418 36.311 45.346C36.3076 45.3483 36.3045 45.3508 36.3015 45.3535L36.2976 45.3572L36.2929 45.3618C36.2863 45.3685 36.2797 45.3751 36.271 45.38C36.186 45.426 36.096 45.455 36.006 45.474C35.9975 45.4755 35.9893 45.4762 35.981 45.477C35.9728 45.4777 35.9645 45.4785 35.956 45.48L35.9235 45.4852L35.9235 45.4853C35.882 45.4921 35.8402 45.499 35.799 45.499C35.766 45.499 35.7335 45.4931 35.7009 45.4872C35.687 45.4846 35.673 45.4821 35.659 45.48C35.649 45.4784 35.639 45.4774 35.629 45.4765C35.614 45.475 35.599 45.4736 35.584 45.47C35.473 45.446 35.367 45.405 35.27 45.344C35.2591 45.3376 35.2495 45.3296 35.2398 45.3215L35.2319 45.315L35.223 45.308C35.142 45.25 35.07 45.179 35.008 45.096C35.003 45.0885 34.9963 45.083 34.9895 45.0775C34.9827 45.072 34.976 45.0665 34.971 45.059C34.945 45.021 32.336 41.212 28.297 38.863C27.467 38.398 27.083 38.45 27.035 38.486C26.983 38.526 26.939 38.732 26.97 38.857C26.979 38.891 26.985 38.924 26.99 38.958C27.1428 39.3404 28.5655 40.93 29.0368 41.4565L29.039 41.459C29.27 41.717 29.458 41.928 29.568 42.06C32.784 46.194 34.407 50.181 34.698 54.635C35.056 58.759 34.651 63.575 33.494 68.928L43.614 76.078ZM20.2 56.9C22.516 56.9 24.4 55.016 24.4 52.7C24.4 50.384 22.516 48.5 20.2 48.5C17.884 48.5 16 50.384 16 52.7C16 55.017 17.884 56.9 20.2 56.9ZM20.2 50.5C21.413 50.5 22.4 51.487 22.4 52.7C22.4 53.913 21.413 54.9 20.2 54.9C18.987 54.9 18 53.913 18 52.7C18 51.487 18.987 50.5 20.2 50.5ZM79.215 51.222C79.264 50.953 79.421 50.715 79.65 50.564C79.878 50.414 80.158 50.364 80.428 50.425L84.998 51.487L85.815 46.827C85.911 46.283 86.431 45.919 86.973 46.015C87.516 46.111 87.88 46.629 87.785 47.173L86.785 52.873C86.737 53.143 86.58 53.382 86.351 53.534C86.122 53.686 85.842 53.736 85.573 53.674L80.998 52.612L80.284 56.577C80.197 57.061 79.776 57.4 79.301 57.4C79.242 57.4 79.183 57.395 79.123 57.384C78.579 57.286 78.217 56.766 78.315 56.223L79.215 51.222ZM19.5 29.9C20.826 29.9 21.9 28.826 21.9 27.5C21.9 26.174 20.826 25.1 19.5 25.1C18.174 25.1 17.1 26.174 17.1 27.5C17.1 28.826 18.175 29.9 19.5 29.9ZM81.7 21.4C81.7 22.5046 80.8046 23.4 79.7 23.4C78.5954 23.4 77.7 22.5046 77.7 21.4C77.7 20.2954 78.5954 19.4 79.7 19.4C80.8046 19.4 81.7 20.2954 81.7 21.4Z" fill="black"/>
</svg>
