<svg width="104" height="104" viewBox="0 0 104 104" fill="none" xmlns="http://www.w3.org/2000/svg">
<path fill-rule="evenodd" clip-rule="evenodd" d="M80.9 59.575H58V34.89C59.557 34.908 61.083 34.04 61.8 32.475C62.3 31.375 63.3 30.475 64.5 30.175C67 29.575 68.3 26.675 67.1 24.375C66.5 23.275 66.5 21.975 67 20.875C68.1 18.575 66.7 15.775 64.1 15.275C62.9 15.075 61.9 14.275 61.3 13.175C60.1 10.875 57.1 10.275 55.1 11.975C54.2 12.775 52.9 13.075 51.7 12.875C49.2 12.375 46.8 14.375 46.9 16.975C47 18.175 46.4 19.375 45.5 20.175C45.4316 20.2326 45.3757 20.2978 45.3198 20.363C45.2873 20.4008 45.2549 20.4387 45.22 20.475H25C21.14 20.475 18 23.615 18 27.475V87.475C18 91.334 21.14 94.475 25 94.475H47H51H80.9C83.657 94.475 85.9 92.232 85.9 89.475V81.276V78.675V64.575C85.9 61.818 83.657 59.575 80.9 59.575ZM50.58 22.682C50.963 22.284 51.596 22.272 51.994 22.655L54.004 24.591L59.611 19.251C60.011 18.87 60.644 18.886 61.025 19.285C61.406 19.685 61.39 20.318 60.991 20.699L54.691 26.699C54.303 27.068 53.693 27.067 53.308 26.695L50.608 24.095C50.208 23.712 50.197 23.079 50.58 22.682ZM20 27.475C20 24.718 22.243 22.475 25 22.475H44.146C43.849 23.953 44.372 25.563 45.7 26.575C46.7 27.275 47.3 28.475 47.3 29.675C47.3 32.275 49.8 34.175 52.1 33.375C53.3 33.075 54.6 33.375 55.6 34.075C55.6843 34.1394 55.7744 34.1879 55.8643 34.2364C55.9098 34.2609 55.9553 34.2854 56 34.312V41.543C55.152 42.311 52.37 44.612 47.918 46.213C47.751 44.84 47.321 43.538 46.66 42.465C44.836 39.387 41.518 37.475 38 37.475C34.484 37.475 31.169 39.384 29.344 42.458C28.679 43.541 28.252 44.768 28.037 46.197C23.612 44.596 20.844 42.309 19.999 41.543V27.475H20ZM38.1 49.975C40.355 49.975 42.299 51.551 42.871 53.718C41.424 54.85 39.678 55.476 37.899 55.476C36.088 55.476 34.45 54.933 33.091 53.877C33.609 51.628 35.591 49.975 37.9 49.975H38.1ZM36 45.975C36 44.835 36.86 43.975 38 43.975C39.14 43.975 40 44.835 40 45.975C40 47.059 39.13 47.975 38.1 47.975H37.944H37.9C36.87 47.975 36 47.059 36 45.975ZM40.98 48.618C41.604 47.906 42 46.981 42 45.975C42 43.732 40.243 41.975 38 41.975C35.757 41.975 34 43.732 34 45.975C34 46.982 34.396 47.906 35.02 48.618C33.446 49.349 32.172 50.657 31.49 52.291C30.559 51.067 30.005 49.527 29.921 47.94C29.9254 47.9289 29.9312 47.9189 29.937 47.9088C29.9443 47.8961 29.9515 47.8835 29.956 47.869C30.021 47.658 29.996 47.447 29.929 47.254C30.05 45.777 30.412 44.539 31.053 43.5L31.062 43.485C32.549 40.974 35.144 39.475 38.001 39.475C40.858 39.475 43.453 40.974 44.949 43.499C45.626 44.601 46 46.013 46 47.475C46 47.759 46 48.113 45.951 48.259C45.931 48.318 45.917 48.379 45.909 48.44C45.729 49.759 45.204 51.027 44.428 52.103C43.729 50.557 42.493 49.321 40.98 48.618ZM56 87.474C56 90.231 53.757 92.475 51 92.475H47H25C22.243 92.475 20 90.232 20 87.475V44.136C21.587 45.34 24.261 47.035 27.943 48.278C28.151 50.887 29.346 53.332 31.216 54.904C32.985 56.562 35.359 57.475 37.9 57.475C40.233 57.475 42.514 56.624 44.359 55.087C44.585 54.998 44.761 54.838 44.87 54.629C46.489 53.083 47.555 51.033 47.879 48.791C47.9198 48.6462 47.9366 48.4954 47.9531 48.3457L47.957 48.311C51.69 47.065 54.398 45.35 56 44.135V87.474ZM83.9 89.475C83.9 91.129 82.554 92.475 80.9 92.475H55.889C57.189 91.203 58 89.433 58 87.475V86.276H80.9C82.03 86.276 83.062 85.885 83.9 85.25V89.475ZM83.9 78.675V81.276C83.9 82.93 82.554 84.276 80.9 84.276H58V61.576H80.9C82.554 61.576 83.9 62.922 83.9 64.576V78.675ZM50 62.976H26C25.448 62.976 25 63.423 25 63.976C25 64.529 25.448 64.976 26 64.976H50C50.552 64.976 51 64.529 51 63.976C51 63.423 50.552 62.976 50 62.976ZM44 70.975C44.552 70.975 45 70.528 45 69.975C45 69.422 44.552 68.975 44 68.975H32C31.448 68.975 31 69.422 31 69.975C31 70.528 31.448 70.975 32 70.975H44ZM49 78.475C50.1 78.475 51 79.375 51 80.475V84.475C51 85.575 50.1 86.475 49 86.475H27C25.9 86.475 25 85.575 25 84.475V80.475C25 79.375 25.9 78.475 27 78.475H49ZM75.293 66.768C75.684 66.377 76.316 66.377 76.707 66.768L80.107 70.168C80.498 70.559 80.498 71.191 80.107 71.582C79.716 71.973 79.084 71.973 78.693 71.582L76 68.889L73.307 71.582C73.12 71.77 72.866 71.875 72.6 71.875C72.334 71.875 72.081 71.77 71.893 71.582L69.222 68.911L66.729 71.56C66.348 71.963 65.717 71.981 65.315 71.603C64.913 71.224 64.894 70.591 65.272 70.189L68.472 66.789C68.658 66.592 68.915 66.479 69.186 66.475C69.468 66.475 69.718 66.577 69.908 66.768L72.6 69.461L75.293 66.768Z" fill="black"/>
</svg>
