<svg width="104" height="104" viewBox="0 0 104 104" fill="none" xmlns="http://www.w3.org/2000/svg">
<path fill-rule="evenodd" clip-rule="evenodd" d="M96.435 35.155C96.725 35.338 96.901 35.658 96.9 36.002C96.899 36.346 96.723 36.665 96.431 36.848L91.856 39.707L96.441 42.66C96.729 42.846 96.902 43.166 96.9 43.508C96.898 43.85 96.72 44.167 96.43 44.349L84.9 51.555V75.399H90.1C90.653 75.399 91.1 75.846 91.1 76.399V79.899C91.1 82.546 88.946 84.699 86.3 84.699H12.8C10.153 84.699 8 82.545 8 79.899V76.399C8 75.846 8.448 75.399 9 75.399H14.5V36.199C14.5 32.725 17.326 29.899 20.8 29.899H72.264L71.374 29.35C71.08 29.169 70.9 28.848 70.899 28.502C70.898 28.156 71.076 27.835 71.369 27.651L83.369 20.151C83.694 19.949 84.106 19.949 84.43 20.151L96.43 27.651C96.723 27.835 96.901 28.156 96.9 28.502C96.899 28.848 96.719 29.168 96.425 29.35L91.787 32.211L96.435 35.155ZM94.004 28.494L83.9 22.179L73.795 28.494L78.425 31.349C78.4264 31.3499 78.4278 31.3508 78.4292 31.3518C78.431 31.3528 78.4328 31.3539 78.435 31.355L83.946 34.845L89.329 31.378L89.358 31.359L94.004 28.494ZM86.3 82.7C87.844 82.7 89.1 81.444 89.1 79.9V77.401H57.783C57.341 79.192 55.679 80.3 53.3 80.3H46C43.622 80.3 41.959 79.191 41.517 77.4H10V79.9C10 81.444 11.256 82.7 12.8 82.7H86.3ZM55.9 76.4C55.9 75.847 56.347 75.4 56.9 75.4H82.902V51.555L71.372 44.349C71.081 44.167 70.903 43.848 70.902 43.504C70.901 43.16 71.077 42.84 71.367 42.656L76.015 39.712L71.376 36.852C71.083 36.672 70.903 36.352 70.901 36.007C70.899 35.662 71.075 35.341 71.366 35.156L76.014 32.212L75.509 31.9H20.8C18.469 31.9 16.5 33.869 16.5 36.2V75.4H42.4C42.952 75.4 43.4 75.847 43.4 76.4C43.4 78.052 45.029 78.299 46 78.299H53.299C54.271 78.299 55.9 78.052 55.9 76.4ZM83.9 49.821L94.034 43.487L89.981 40.878L84.428 44.349C84.267 44.45 84.084 44.5 83.9 44.5C83.715 44.5 83.528 44.449 83.365 44.345L77.9 40.884L73.778 43.495L83.9 49.821ZM24.7 52C24.444 52 24.188 51.902 23.993 51.707C23.603 51.316 23.603 50.684 23.993 50.293L26.286 48L23.993 45.707C23.602 45.316 23.602 44.684 23.993 44.293C24.384 43.902 25.016 43.902 25.407 44.293L28.407 47.293C28.798 47.684 28.798 48.316 28.407 48.707L25.407 51.707C25.212 51.902 24.956 52 24.7 52ZM37.7 52H31.7C31.148 52 30.7 51.552 30.7 51C30.7 50.448 31.148 50 31.7 50H37.7C38.252 50 38.7 50.448 38.7 51C38.7 51.552 38.252 52 37.7 52ZM30.7 62.2H24.7C24.148 62.2 23.7 62.647 23.7 63.2C23.7 63.753 24.148 64.2 24.7 64.2H30.7C31.252 64.2 31.7 63.753 31.7 63.2C31.7 62.647 31.252 62.2 30.7 62.2ZM34.7 62.2H43.7C44.252 62.2 44.7 62.647 44.7 63.2C44.7 63.753 44.252 64.2 43.7 64.2H34.7C34.148 64.2 33.7 63.753 33.7 63.2C33.7 62.647 34.148 62.2 34.7 62.2ZM24.7 58.2H35.2C35.752 58.2 36.2 57.753 36.2 57.2C36.2 56.647 35.752 56.2 35.2 56.2H24.7C24.148 56.2 23.7 56.647 23.7 57.2C23.7 57.753 24.148 58.2 24.7 58.2ZM39.7 56.2H45.7C46.252 56.2 46.7 56.647 46.7 57.2C46.7 57.753 46.252 58.2 45.7 58.2H39.7C39.148 58.2 38.7 57.753 38.7 57.2C38.7 56.647 39.148 56.2 39.7 56.2ZM57.7 56.2H49.7C49.148 56.2 48.7 56.647 48.7 57.2C48.7 57.753 49.148 58.2 49.7 58.2H57.7C58.253 58.2 58.7 57.753 58.7 57.2C58.7 56.647 58.253 56.2 57.7 56.2Z" fill="black"/>
</svg>
