<svg width="104" height="104" viewBox="0 0 104 104" fill="none" xmlns="http://www.w3.org/2000/svg">
<path d="M89 90.7H75.7V83.77L81.138 79.27C81.564 78.917 81.622 78.288 81.271 77.862C80.917 77.435 80.288 77.377 79.863 77.729L75.7 81.174V70.7C75.7 70.147 75.253 69.7 74.7 69.7C74.147 69.7 73.7 70.147 73.7 70.7V74.386L69.507 70.193C69.116 69.802 68.484 69.802 68.093 70.193C67.702 70.584 67.702 71.216 68.093 71.607L73.7 77.214V90.7H68.166C67.821 86.554 64.45 83.4 60.2 83.4C59.293 83.4 58.375 83.591 57.5 83.915V59.7H77.6C78.153 59.7 78.6 59.253 78.6 58.7V40.7C78.6 33.532 72.768 27.7 65.6 27.7H60.4V23.834L70.627 19.005C70.977 18.84 71.2 18.487 71.2 18.101C71.2 17.715 70.976 17.362 70.627 17.197L59.827 12.097C59.516 11.951 59.154 11.973 58.865 12.157C58.576 12.339 58.4 12.657 58.4 13V13.9V23.2V27.7H35.5C28.332 27.7 22.5 33.532 22.5 40.7V58.253L19.033 61.355C17.392 62.826 16.839 65.101 17.624 67.152C18.414 69.217 20.283 70.5 22.5 70.5H26.6C32.83 70.5 38.219 68.324 43.574 63.639L46.5 60.968V79.84C45.106 79.16 43.58 78.801 42 78.801C36.321 78.801 31.7 83.421 31.7 89.101C31.7 89.646 31.765 90.181 31.859 90.702H27.3V81.302C27.3 80.749 26.852 80.302 26.3 80.302C25.748 80.302 25.3 80.749 25.3 81.302V85.409L21.729 82.524C21.3 82.177 20.669 82.245 20.323 82.674C19.976 83.103 20.043 83.733 20.472 84.08L25.3 87.98V90.7H15C14.448 90.7 14 91.147 14 91.7C14 92.253 14.448 92.7 15 92.7H47.5H56.5H89C89.553 92.7 90 92.253 90 91.7C90 91.147 89.553 90.7 89 90.7ZM60.2 85.4C63.327 85.4 65.821 87.678 66.158 90.7H57.5V86.092C58.347 85.652 59.284 85.4 60.2 85.4ZM58.4 29.7V34.6C58.4 35.152 58.847 35.6 59.4 35.6C59.953 35.6 60.4 35.152 60.4 34.6V29.7H65.6C71.665 29.7 76.6 34.635 76.6 40.7V57.7H56.5H48.5V40.7C48.5 36.066 46.056 32.002 42.397 29.7H58.4ZM42.241 62.147C37.288 66.481 32.318 68.5 26.6 68.5H22.5C20.864 68.5 19.873 67.435 19.492 66.438C19.105 65.427 19.132 63.953 20.367 62.845L23.882 59.7H44.922L42.241 62.147ZM33.7 89.1C33.7 84.524 37.423 80.8 42 80.8C43.616 80.8 45.155 81.281 46.5 82.153V90.7H33.897C33.784 90.166 33.7 89.623 33.7 89.1ZM48.5 90.7V59.7H55.5V90.7H48.5Z" fill="black"/>
</svg>
