<svg width="104" height="104" viewBox="0 0 104 104" fill="none" xmlns="http://www.w3.org/2000/svg">
<path fill-rule="evenodd" clip-rule="evenodd" d="M92.199 23.534C92.212 23.163 92.017 22.816 91.695 22.632L76.795 14.132C76.488 13.957 76.111 13.957 75.805 14.132L61.486 22.3H18C14.14 22.3 11 25.44 11 29.3V77.4C11 81.259 14.14 84.4 18 84.4H25.9V87.9C25.9 88.5 26.3 88.9 26.9 88.9H35.7C36.2 88.9 36.7 88.5 36.7 87.9V84.4H59.8V87.9C59.8 88.5 60.2 88.9 60.8 88.9H69.6C70.2 88.9 70.6 88.5 70.6 87.9V84.4H78.6C82.459 84.4 85.6 81.259 85.6 77.4V43.906C87.407 41.416 88.897 38.43 90.026 34.986C91.997 28.97 92.192 23.752 92.199 23.534ZM76.3 16.151L90.164 24.06C89.916 27.413 88.097 43.962 76.303 49.113C64.552 43.899 62.697 27.457 62.438 24.06L76.3 16.151ZM21.2 65.098C22.354 64.791 23.2 63.756 23.2 62.5V59C23.2 57.744 22.354 56.709 21.2 56.402V50.298C22.354 49.991 23.2 48.956 23.2 47.7V44.2C23.2 42.944 22.354 41.909 21.2 41.602V34.6C21.2 33.46 22.06 32.6 23.2 32.6H61.922C63.666 39.068 67.393 47.223 75.299 50.84V72.1C75.299 73.241 74.44 74.1 73.299 74.1H23.2C22.06 74.1 21.2 73.241 21.2 72.1V65.098ZM83.6 77.4C83.6 80.157 81.357 82.4 78.6 82.4H18C15.243 82.4 13 80.157 13 77.4V29.3C13 26.543 15.243 24.3 18 24.3H60.451C60.543 25.44 60.795 27.76 61.429 30.6H23.2C20.957 30.6 19.2 32.357 19.2 34.6V41.632C18.098 41.972 17.3 42.981 17.3 44.2V47.7C17.3 48.919 18.098 49.928 19.2 50.268V56.433C18.098 56.773 17.3 57.782 17.3 59.001V62.501C17.3 63.72 18.098 64.729 19.2 65.069V72.1C19.2 74.343 20.957 76.1 23.2 76.1H73.3C75.543 76.1 77.3 74.343 77.3 72.1V50.848C79.636 49.794 81.747 48.275 83.6 46.32V77.4ZM70.485 33.499L75.085 38.199C75.273 38.392 75.531 38.5 75.8 38.5H75.823C76.1 38.494 76.362 38.373 76.547 38.166L84.648 29.066C85.015 28.653 84.978 28.021 84.566 27.654C84.155 27.288 83.52 27.323 83.154 27.736L75.766 36.036L71.915 32.102C71.528 31.708 70.895 31.7 70.501 32.086C70.107 32.472 70.1 33.104 70.485 33.499ZM35.7 54.3H39.7C40.3 54.3 40.7 53.9 40.7 53.3C40.7 52.7 40.3 52.3 39.7 52.3H35.7C35.9 49.6 37 47.1 38.7 45.1L41.5 47.9C41.7 48.1 41.9 48.2 42.2 48.2C42.5 48.2 42.7 48.1 42.9 47.9C43.3 47.5 43.3 46.9 42.9 46.5L40.1 43.7C42 42 44.5 40.9 47.3 40.7V44.7C47.3 45.3 47.8 45.7 48.3 45.7C48.9 45.7 49.3 45.3 49.3 44.7V40.7C52 40.9 54.5 42 56.5 43.7L53.7 46.5C53.3 46.9 53.3 47.5 53.7 47.9C53.9 48.1 54.1 48.2 54.4 48.2C54.7 48.2 54.9 48.1 55.1 47.9L57.9 45.1C59.6 47.1 60.7 49.5 60.9 52.3H56.9C56.3 52.3 55.9 52.7 55.9 53.3C55.9 53.9 56.4 54.3 56.9 54.3H60.9C60.7 57 59.6 59.5 57.9 61.5L55.1 58.7C54.7 58.3 54.1 58.3 53.7 58.7C53.3 59.1 53.3 59.7 53.7 60.1L56.5 62.9C54.6 64.6 52.1 65.7 49.3 65.9V61.9C49.3 61.3 48.9 60.9 48.3 60.9C47.8 60.9 47.3 61.3 47.3 61.9V65.9C44.6 65.7 42.1 64.6 40.1 62.9L42.9 60.1C43.3 59.7 43.3 59.1 42.9 58.7C42.5 58.3 41.9 58.3 41.5 58.7L38.7 61.5C37 59.6 35.9 57.1 35.7 54.3ZM51.3 53.3C51.3 51.6 50 50.3 48.3 50.3C46.7 50.3 45.3 51.6 45.3 53.3C45.3 55 46.7 56.3 48.3 56.3C49.9 56.3 51.3 55 51.3 53.3Z" fill="black"/>
</svg>
